<?xml version="1.0" standalone="no"?>
<!DOCTYPE svg PUBLIC "-//W3C//DTD SVG 20010904//EN"
 "http://www.w3.org/TR/2001/REC-SVG-20010904/DTD/svg10.dtd">
<svg version="1.0" xmlns="http://www.w3.org/2000/svg"
 width="1536.000000pt" height="1111.000000pt" viewBox="0 0 1536.000000 1111.000000"
 preserveAspectRatio="xMidYMid meet">

<g transform="translate(0.000000,1111.000000) scale(0.100000,-0.100000)"
fill="#000000" stroke="none">
<path d="M8800 9660 c-6 -10 -10 -46 -10 -79 0 -49 -4 -65 -24 -88 -22 -25
-31 -28 -105 -31 -45 -2 -81 -8 -81 -12 0 -15 44 -81 83 -125 45 -51 50 -99
15 -148 -23 -33 -31 -110 -29 -292 0 -33 1 -132 1 -219 1 -131 5 -170 21 -215
25 -71 24 -96 -3 -153 -16 -34 -31 -50 -48 -54 -42 -9 -52 -18 -81 -72 -25
-47 -28 -60 -22 -116 7 -74 -7 -124 -47 -170 -16 -18 -32 -45 -36 -62 -4 -16
-24 -51 -45 -79 -20 -27 -40 -60 -44 -72 -4 -16 -14 -23 -31 -23 -13 0 -24 -5
-24 -10 0 -21 28 -75 46 -91 20 -17 142 -69 162 -69 7 0 33 16 58 35 79 61
100 68 168 60 112 -12 107 -13 139 33 24 35 34 42 61 42 38 0 49 10 65 62 7
20 36 66 66 102 29 37 57 76 60 89 11 34 56 77 82 77 28 0 48 -30 64 -95 6
-27 17 -59 22 -70 6 -11 14 -40 17 -65 6 -44 6 -43 32 64 14 59 31 113 37 119
6 6 31 10 56 9 37 -1 47 3 65 25 11 14 23 36 26 48 7 29 43 45 102 45 55 0
112 30 112 59 0 11 11 33 25 49 15 18 25 42 25 60 0 28 4 32 38 37 59 10 65
13 57 33 -17 39 -17 63 0 82 15 17 15 20 0 44 -21 31 -12 86 13 86 9 0 31 9
47 20 17 11 47 20 69 20 l38 0 -4 63 c-3 46 -10 71 -26 92 -27 35 -28 70 -1
137 11 29 25 77 31 108 12 65 37 116 72 149 l26 25 -22 23 c-13 13 -34 47 -48
75 -23 47 -30 53 -89 75 -83 30 -88 35 -107 99 -19 67 -51 94 -108 94 -34 0
-48 -6 -72 -31 -40 -43 -87 -62 -135 -54 -32 6 -39 4 -39 -10 0 -8 -9 -33 -20
-55 -12 -24 -20 -59 -20 -90 l0 -51 -56 -26 c-49 -22 -65 -25 -123 -19 -56 5
-69 11 -88 34 -12 15 -34 41 -48 59 -30 36 -69 48 -110 33 -25 -10 -32 -7 -62
22 -37 35 -133 214 -133 247 0 11 -5 23 -11 27 -7 4 -9 23 -6 49 6 37 4 44
-13 48 -13 3 -24 -1 -30 -13z"/>
<path d="M9912 8240 c-8 -14 -23 -20 -47 -20 -32 0 -35 -3 -41 -37 -3 -21 -13
-43 -21 -50 -8 -6 -22 -26 -31 -44 -27 -52 -61 -71 -141 -77 -62 -4 -71 -7
-71 -24 0 -11 -14 -37 -32 -59 -28 -35 -36 -39 -78 -39 l-47 0 -20 -90 -21
-89 20 -41 20 -40 -26 -54 c-32 -66 -58 -89 -98 -89 -39 0 -61 27 -55 68 3 17
-4 48 -15 73 -19 43 -17 82 5 82 7 0 18 4 26 9 14 9 11 20 -46 201 -3 9 -15
-6 -33 -40 -15 -30 -47 -76 -70 -102 -23 -27 -48 -70 -58 -100 -16 -49 -21
-54 -68 -73 -30 -12 -65 -36 -84 -58 -31 -36 -36 -38 -74 -33 -146 21 -136 22
-201 -29 -33 -26 -72 -51 -87 -57 -39 -14 -41 -32 -8 -73 31 -39 34 -48 45
-107 7 -42 17 -46 63 -22 29 14 37 14 84 0 68 -20 90 -36 129 -94 18 -26 54
-70 82 -99 l50 -52 61 31 c33 17 88 57 122 90 65 62 100 77 176 78 52 0 83
-17 102 -56 14 -31 18 -33 37 -23 18 9 20 16 14 47 -4 21 -9 49 -12 64 -7 39
3 71 33 108 22 26 25 37 20 71 -5 34 -3 43 17 62 33 31 58 82 66 136 l6 46 95
7 c52 3 127 11 165 17 39 6 100 10 138 11 99 0 107 11 107 144 0 97 -2 107
-25 134 -14 17 -25 39 -25 51 0 13 -14 30 -40 46 -43 27 -48 45 -25 85 18 31
19 102 3 118 -19 19 -72 15 -86 -8z"/>
<path d="M6495 8071 l-40 -6 -5 -133 -5 -134 -42 -36 c-72 -63 -124 -206 -179
-491 -18 -100 -36 -161 -55 -199 -16 -30 -29 -56 -29 -58 0 -8 37 -4 113 13
62 14 76 21 71 33 -20 51 -16 80 15 115 17 20 31 39 32 43 0 4 1 25 3 47 3 49
25 242 32 273 4 20 10 22 74 22 l69 0 7 -37 c3 -21 11 -65 18 -98 l11 -60 158
-3 157 -3 6 31 c8 39 22 49 75 55 24 2 90 10 147 16 l102 11 0 77 c0 70 3 80
25 101 24 23 25 28 25 144 0 109 -3 127 -27 182 l-26 61 -81 8 c-45 4 -171 11
-281 16 -110 5 -229 11 -265 13 -36 2 -83 1 -105 -3z"/>
<path d="M9274 7679 c-19 -21 -19 -21 10 -44 27 -22 28 -23 12 -53 -18 -35
-19 -42 -8 -42 10 0 52 67 52 84 0 16 -32 76 -41 76 -3 0 -14 -9 -25 -21z"/>
<path d="M3203 6069 c-39 -14 -55 -51 -47 -110 3 -30 12 -67 20 -84 7 -16 15
-57 16 -90 3 -58 4 -61 38 -77 19 -10 39 -19 45 -21 13 -5 26 -219 14 -231
-14 -15 -11 -36 5 -36 22 0 98 -81 129 -139 21 -39 29 -66 29 -103 -1 -29 5
-60 14 -72 28 -41 15 -76 -45 -118 l-23 -16 27 -41 c26 -38 27 -42 12 -65 -9
-13 -40 -37 -68 -53 -82 -44 -90 -79 -26 -111 21 -10 27 -20 27 -47 0 -28 -5
-37 -31 -51 -30 -15 -31 -18 -27 -65 6 -62 14 -70 72 -76 44 -5 46 -7 46 -39
0 -27 -6 -36 -30 -49 -16 -9 -30 -23 -30 -33 0 -18 41 -235 46 -241 1 -1 37
-7 79 -12 41 -4 79 -11 84 -14 5 -3 13 -20 16 -37 6 -26 3 -35 -14 -49 -21
-17 -22 -23 -15 -117 l7 -100 -27 -17 c-14 -10 -26 -23 -26 -30 0 -12 69 -71
74 -64 1 2 10 16 19 32 15 23 24 27 64 27 25 0 63 5 84 11 47 14 58 7 88 -56
17 -37 21 -64 21 -149 l0 -105 55 -16 c30 -8 55 -18 55 -22 0 -4 -10 -35 -21
-69 -26 -77 -21 -109 20 -117 16 -3 45 -4 64 0 27 4 43 0 65 -16 28 -19 32
-20 58 -6 16 8 52 15 81 15 46 0 54 -3 73 -30 12 -17 25 -43 29 -58 5 -18 20
-33 46 -45 36 -18 41 -18 73 -3 19 9 37 14 40 11 3 -3 8 -46 12 -95 8 -107 12
-113 114 -129 72 -12 82 -9 88 24 4 26 56 32 97 11 16 -9 41 -16 55 -16 32 0
75 46 92 98 7 20 23 44 36 52 53 35 76 62 82 94 9 47 45 79 142 125 73 35 84
44 84 66 0 47 28 85 83 111 29 13 57 24 64 24 23 0 51 51 69 122 21 89 30 104
69 119 16 7 42 23 57 37 21 19 42 26 85 30 41 3 62 10 71 23 9 14 26 19 55 19
64 0 107 16 146 54 39 38 81 58 209 100 46 16 93 38 105 51 12 12 38 28 58 34
l37 12 7 79 c5 51 3 91 -5 114 -8 27 -8 49 1 95 l12 61 42 0 c48 0 71 19 81
66 4 21 1 34 -10 43 -36 30 -5 173 46 212 32 25 38 122 10 152 -27 29 -72 126
-72 155 0 13 -18 45 -40 71 -22 26 -40 55 -40 65 0 10 -13 34 -30 52 -57 65
-60 144 -5 180 49 32 32 43 -57 37 -70 -5 -86 -9 -103 -28 -18 -21 -34 -24
-192 -35 -201 -14 -322 -2 -331 32 -6 26 -17 23 -42 -12 -32 -45 -53 -53 -96
-35 -20 8 -51 15 -69 15 -58 0 -108 29 -186 111 l-76 79 -90 0 c-83 0 -92 -2
-130 -30 -36 -27 -48 -45 -67 -102 -8 -26 -170 -26 -198 -1 -15 14 -39 17
-108 18 -85 0 -90 1 -120 30 -41 39 -47 51 -125 256 -61 160 -90 223 -128 273
-13 18 -16 18 -65 2 -29 -10 -76 -35 -104 -57 -60 -45 -69 -46 -114 -18 -29
18 -45 20 -121 15 -202 -11 -267 -23 -333 -61 -32 -19 -131 -19 -176 0 -23 10
-40 26 -52 52 -10 21 -32 58 -50 82 -17 24 -32 50 -32 56 0 18 -21 24 -47 14z"/>
<path d="M12060 5243 c0 -12 -14 -38 -31 -57 -35 -40 -49 -82 -49 -146 -1 -25
-8 -63 -16 -85 -33 -84 -31 -94 22 -140 47 -41 48 -43 52 -110 4 -61 8 -71 34
-93 63 -53 78 -135 31 -178 l-27 -25 22 -15 c16 -11 22 -25 22 -54 0 -21 5
-61 11 -88 10 -41 9 -57 -5 -97 -24 -72 -21 -118 10 -155 29 -34 27 -47 -17
-101 -29 -36 -21 -53 66 -153 55 -64 75 -94 80 -124 3 -22 13 -48 20 -59 23
-29 18 -69 -9 -90 -24 -17 -24 -21 -15 -68 6 -27 13 -60 15 -72 2 -12 29 -52
60 -90 l56 -68 -7 -68 c-5 -53 -2 -80 11 -117 30 -84 46 -80 -305 -80 l-309 0
-30 -25 c-16 -13 -35 -37 -41 -53 -9 -21 -34 -39 -106 -75 l-95 -47 0 -42 c0
-68 8 -74 77 -58 32 8 97 15 144 18 84 3 87 3 92 -20 3 -13 2 -41 -3 -63 -5
-22 -10 -55 -10 -72 l0 -33 56 0 c30 0 64 5 74 10 28 15 131 24 184 16 l46 -7
-1 -267 c-1 -147 -4 -278 -8 -292 -11 -40 -50 -37 -130 9 -38 23 -74 41 -80
41 -17 0 -30 -67 -37 -187 l-7 -113 26 0 c14 0 57 19 97 41 62 36 76 41 112
35 66 -11 105 -32 124 -68 9 -18 31 -50 47 -71 30 -37 30 -38 14 -71 -15 -33
-15 -37 10 -101 24 -63 25 -71 13 -120 -13 -55 -9 -75 16 -75 8 0 14 10 14 24
0 17 9 27 31 36 17 8 28 18 25 26 -29 75 -12 140 49 190 31 25 49 50 60 83 20
61 49 88 105 97 55 9 85 40 105 107 19 64 19 188 1 248 -16 52 -11 123 10 154
9 12 14 47 14 92 l0 72 35 7 c27 5 35 11 35 28 0 34 35 81 92 127 66 52 105
69 160 69 56 0 65 7 73 55 3 22 9 52 11 66 3 15 23 51 45 80 21 29 39 56 39
59 0 4 -40 39 -89 78 -58 46 -91 80 -95 97 -4 15 -17 40 -29 56 -19 27 -20 33
-8 62 8 18 16 49 18 69 5 33 0 42 -56 102 -63 68 -67 76 -75 168 -2 31 -14 77
-25 102 -20 46 -20 46 -70 46 -48 0 -51 2 -98 56 l-48 57 -5 116 c-4 90 -10
122 -24 144 -16 24 -17 33 -7 66 6 21 11 67 11 101 l0 63 56 56 c31 31 62 68
70 83 8 15 25 29 42 33 21 4 33 16 45 44 11 24 31 45 56 59 48 27 77 81 60
113 -6 12 -9 36 -7 55 3 28 0 35 -22 44 -41 17 -73 91 -75 172 -2 39 -8 75
-16 84 -10 12 -10 22 -1 46 6 17 9 35 6 39 -3 5 -34 9 -68 9 -43 0 -67 5 -76
14 -8 11 -24 13 -60 9 -37 -4 -56 -1 -76 12 -25 16 -27 16 -55 -4 -35 -26 -64
-27 -96 -1 -14 11 -38 20 -54 20 -18 0 -34 9 -46 26 -17 23 -23 25 -41 15 -12
-6 -26 -20 -32 -31 -24 -44 -110 -15 -145 48 -8 15 -28 43 -44 62 -28 32 -30
33 -31 13z"/>
<path d="M8953 5043 c-3 -10 -21 -35 -39 -55 -18 -20 -38 -55 -45 -77 -14 -46
-4 -44 -227 -61 -75 -5 -148 -17 -170 -26 -20 -8 -62 -21 -92 -29 -30 -7 -69
-19 -86 -26 -42 -17 -81 0 -113 47 -22 32 -103 84 -131 84 -5 0 -18 -17 -27
-37 -16 -32 -25 -38 -82 -54 -80 -23 -256 -49 -324 -49 -29 0 -83 7 -122 15
-89 19 -133 12 -142 -23 -3 -13 0 -69 7 -123 l12 -99 27 8 c35 9 170 9 198 -1
18 -7 33 2 82 47 55 51 65 56 106 56 43 0 45 -1 69 -48 30 -59 81 -106 133
-122 21 -6 44 -13 51 -16 10 -3 9 -10 -3 -33 -8 -17 -15 -35 -15 -41 0 -13 47
-13 55 0 18 28 139 -5 179 -49 13 -14 26 -17 61 -13 81 9 91 1 139 -102 50
-108 77 -132 98 -89 7 16 28 36 47 45 44 22 77 54 91 89 7 15 23 35 36 44 13
8 32 32 42 53 21 45 70 72 130 72 50 0 86 17 124 57 28 30 81 140 73 153 -2 4
-32 10 -65 14 l-60 7 0 43 c0 30 6 48 20 61 46 42 49 132 9 241 -21 56 -35 67
-46 37z"/>
<path d="M12046 1640 c-39 -21 -93 -43 -120 -49 -28 -5 -76 -19 -106 -30 -30
-11 -67 -20 -81 -21 -19 0 -31 -10 -46 -37 -20 -36 -21 -52 -20 -248 2 -274
-1 -265 123 -265 51 0 96 4 99 10 4 6 73 10 173 10 92 0 177 3 189 6 21 6 113
113 113 132 0 5 -14 15 -30 22 -17 7 -35 21 -40 31 -12 22 -13 99 -1 118 10
15 -11 104 -30 127 -7 9 -10 32 -7 62 5 39 1 55 -21 92 -15 25 -38 50 -52 56
-53 25 -73 23 -143 -16z"/>
</g>
</svg>
